<?xml version="1.0" encoding="UTF-8" standalone="no"?>
<!-- Created with Inkscape (http://www.inkscape.org/) -->

<svg
   xmlns:dc="http://purl.org/dc/elements/1.1/"
   xmlns:cc="http://creativecommons.org/ns#"
   xmlns:rdf="http://www.w3.org/1999/02/22-rdf-syntax-ns#"
   xmlns:svg="http://www.w3.org/2000/svg"
   xmlns="http://www.w3.org/2000/svg"
   xmlns:sodipodi="http://sodipodi.sourceforge.net/DTD/sodipodi-0.dtd"
   xmlns:inkscape="http://www.inkscape.org/namespaces/inkscape"
   width="23.416325mm"
   height="26.070684mm"
   viewBox="0 0 23.416325 26.070684"
   version="1.1"
   id="svg8"
   inkscape:version="0.92.3 (2405546, 2018-03-11)"
   sodipodi:docname="cat.svg">
  <defs
     id="defs2" />
  <sodipodi:namedview
     id="base"
     pagecolor="#ffffff"
     bordercolor="#666666"
     borderopacity="1.0"
     inkscape:pageopacity="0.0"
     inkscape:pageshadow="2"
     inkscape:zoom="2.8"
     inkscape:cx="-18.702296"
     inkscape:cy="52.561794"
     inkscape:document-units="mm"
     inkscape:current-layer="layer1"
     showgrid="false"
     inkscape:window-width="1920"
     inkscape:window-height="1057"
     inkscape:window-x="-8"
     inkscape:window-y="-8"
     inkscape:window-maximized="1"
     showguides="true"
     inkscape:guide-bbox="true"
     fit-margin-top="0"
     fit-margin-left="0"
     fit-margin-right="0"
     fit-margin-bottom="0" />
  <metadata
     id="metadata5">
    <rdf:RDF>
      <cc:Work
         rdf:about="">
        <dc:format>image/svg+xml</dc:format>
        <dc:type
           rdf:resource="http://purl.org/dc/dcmitype/StillImage" />
        <dc:title></dc:title>
      </cc:Work>
    </rdf:RDF>
  </metadata>
  <g
     inkscape:label="Layer 1"
     inkscape:groupmode="layer"
     id="layer1"
     style="display:inline"
     transform="translate(-27.400027,-15.933087)">
    <path
       style="fill:#000000;stroke-width:0.26458332"
       d="m 35.644837,41.852042 c -0.206603,-0.08481 -0.257642,-0.813599 -0.163101,-2.328963 0.07568,-1.213037 0.04156,-2.666135 -0.07582,-3.229107 l -0.213417,-1.023586 -0.199182,1.190625 c -0.109551,0.654844 -0.208008,1.910953 -0.218794,2.791354 -0.02188,1.785481 -0.304573,2.235729 -1.403749,2.235729 -1.010117,0 -1.267212,-0.720029 -0.471427,-1.320291 0.438978,-0.331121 0.568944,-0.634679 0.466944,-1.090623 -0.07774,-0.347487 -0.322571,-1.524763 -0.544075,-2.616169 -0.221504,-1.091406 -1.008357,-3.369396 -1.748561,-5.062199 -0.740205,-1.692804 -1.347857,-3.359679 -1.350339,-3.704167 -0.0025,-0.344488 -0.357639,-1.221655 -0.789238,-1.949259 -0.4316,-0.727604 -0.786757,-1.604593 -0.789238,-1.948864 -0.0025,-0.344272 -0.209969,-1.204424 -0.461082,-1.911451 -0.582801,-1.640914 -0.2753,-2.083459 0.992235,-1.427991 1.170168,0.605117 3.504581,0.327017 4.672202,-0.556603 1.29402,-0.979274 1.505183,-0.855285 1.313982,0.771535 -0.110793,0.942673 -0.05718,1.555963 0.162009,1.853263 0.305124,0.413858 0.422902,0.408032 1.716666,-0.08492 1.572481,-0.599154 6.987512,-1.166037 8.693942,-0.910142 1.269642,0.190394 2.401719,-0.286584 3.255088,-1.371467 0.676806,-0.86042 0.689375,-1.197192 0.07308,-1.958279 -0.600875,-0.74205 -1.562454,-0.518017 -1.797582,0.418808 -0.170895,0.680901 -0.755388,0.870151 -0.966986,0.313095 -0.22421,-0.59026 0.112731,-2.00807 0.577084,-2.428305 1.351541,-1.223127 3.538619,-0.387978 4.237655,1.618174 0.484307,1.389906 0.09981,2.843218 -1.119641,4.23202 -0.804885,0.916662 -0.849746,1.081086 -0.88312,3.236759 -0.02431,1.570385 -0.207976,2.753182 -0.595312,3.833814 -0.398032,1.110474 -0.560153,2.191234 -0.560153,3.7342 0,4.223787 -0.74492,6.268856 -2.341264,6.427602 -0.686683,0.06829 -0.833736,-0.01106 -0.833736,-0.449874 0,-0.293031 0.161212,-0.627996 0.35825,-0.744368 0.464876,-0.274558 0.965533,-1.236756 0.96148,-1.847836 -0.0019,-0.28302 -0.282211,0.0088 -0.682268,0.71021 -0.942105,1.651782 -1.412549,2.116667 -2.141981,2.116667 -0.996909,0 -1.05767,-0.736202 -0.130642,-1.582911 1.135502,-1.037121 1.261249,-1.79455 0.566172,-3.410301 l -0.581471,-1.351666 -2.042953,0.02187 c -1.123625,0.01203 -2.159358,0.100172 -2.301631,0.195876 -0.360639,0.242597 -0.987202,5.891593 -0.77747,7.009559 0.248078,1.322368 -0.652359,2.094997 -1.86256,1.598189 z"
       id="path3724"
       inkscape:connector-curvature="0"
       inkscape:label="path3724" />
  </g>
</svg>
